<mxfile host="Electron" agent="Mozilla/5.0 (Windows NT 10.0; Win64; x64) AppleWebKit/537.36 (KHTML, like Gecko) draw.io/24.7.5 Chrome/126.0.6478.183 Electron/31.3.0 Safari/537.36" version="24.7.5">
  <diagram id="R2lEEEUBdFMjLlhIrx00" name="Page-1">
    <mxGraphModel dx="1500" dy="887" grid="1" gridSize="10" guides="1" tooltips="1" connect="1" arrows="1" fold="1" page="1" pageScale="1" pageWidth="850" pageHeight="1100" background="none" math="0" shadow="0" extFonts="Permanent Marker^https://fonts.googleapis.com/css?family=Permanent+Marker">
      <root>
        <mxCell id="0" />
        <mxCell id="1" parent="0" />
        <mxCell id="uHuHp3nA_jXWI_jN8eQP-20" style="edgeStyle=orthogonalEdgeStyle;rounded=1;orthogonalLoop=1;jettySize=auto;html=1;exitX=0;exitY=0.5;exitDx=0;exitDy=0;entryX=1;entryY=0.5;entryDx=0;entryDy=0;endArrow=ERmany;endFill=0;startArrow=ERone;startFill=0;" parent="1" source="uHuHp3nA_jXWI_jN8eQP-1" target="uHuHp3nA_jXWI_jN8eQP-58" edge="1">
          <mxGeometry relative="1" as="geometry">
            <mxPoint x="320.0000000000002" y="420" as="targetPoint" />
          </mxGeometry>
        </mxCell>
        <mxCell id="7U72ErHrJSfMNErl-BH8-21" style="edgeStyle=orthogonalEdgeStyle;rounded=1;orthogonalLoop=1;jettySize=auto;html=1;exitX=0.75;exitY=0;exitDx=0;exitDy=0;entryX=0.75;entryY=1;entryDx=0;entryDy=0;startArrow=ERone;startFill=0;endArrow=ERone;endFill=0;" edge="1" parent="1" source="uHuHp3nA_jXWI_jN8eQP-1" target="uHuHp3nA_jXWI_jN8eQP-38">
          <mxGeometry relative="1" as="geometry" />
        </mxCell>
        <mxCell id="uHuHp3nA_jXWI_jN8eQP-1" value="AUTO" style="whiteSpace=wrap;html=1;align=center;rounded=1;" parent="1" vertex="1">
          <mxGeometry x="360" y="400" width="100" height="40" as="geometry" />
        </mxCell>
        <mxCell id="7U72ErHrJSfMNErl-BH8-30" style="edgeStyle=orthogonalEdgeStyle;rounded=1;orthogonalLoop=1;jettySize=auto;html=1;exitX=0.75;exitY=0;exitDx=0;exitDy=0;entryX=0;entryY=0;entryDx=0;entryDy=0;startArrow=ERone;startFill=0;endArrow=ERone;endFill=0;" edge="1" parent="1" source="uHuHp3nA_jXWI_jN8eQP-2" target="uHuHp3nA_jXWI_jN8eQP-30">
          <mxGeometry relative="1" as="geometry" />
        </mxCell>
        <mxCell id="uHuHp3nA_jXWI_jN8eQP-2" value="PROPIETARIO" style="whiteSpace=wrap;html=1;align=center;rounded=1;" parent="1" vertex="1">
          <mxGeometry x="490" y="400" width="100" height="40" as="geometry" />
        </mxCell>
        <mxCell id="uHuHp3nA_jXWI_jN8eQP-10" value="MATRÍCULA" style="ellipse;whiteSpace=wrap;html=1;align=center;fontStyle=4;rounded=1;" parent="1" vertex="1">
          <mxGeometry x="220" y="530" width="100" height="40" as="geometry" />
        </mxCell>
        <mxCell id="uHuHp3nA_jXWI_jN8eQP-12" value="PRECIO" style="ellipse;whiteSpace=wrap;html=1;align=center;rounded=1;" parent="1" vertex="1">
          <mxGeometry x="220" y="580" width="100" height="40" as="geometry" />
        </mxCell>
        <mxCell id="7U72ErHrJSfMNErl-BH8-6" style="edgeStyle=orthogonalEdgeStyle;rounded=1;orthogonalLoop=1;jettySize=auto;html=1;exitX=1;exitY=0.5;exitDx=0;exitDy=0;entryX=0;entryY=0.25;entryDx=0;entryDy=0;startArrow=ERmany;startFill=0;endArrow=ERone;endFill=0;" edge="1" parent="1" source="uHuHp3nA_jXWI_jN8eQP-13" target="uHuHp3nA_jXWI_jN8eQP-58">
          <mxGeometry relative="1" as="geometry" />
        </mxCell>
        <mxCell id="uHuHp3nA_jXWI_jN8eQP-13" value="MODELO" style="ellipse;whiteSpace=wrap;html=1;align=center;rounded=1;" parent="1" vertex="1">
          <mxGeometry x="70" y="350" width="100" height="40" as="geometry" />
        </mxCell>
        <mxCell id="7U72ErHrJSfMNErl-BH8-7" style="edgeStyle=orthogonalEdgeStyle;rounded=1;orthogonalLoop=1;jettySize=auto;html=1;exitX=1;exitY=0.5;exitDx=0;exitDy=0;entryX=0;entryY=0.5;entryDx=0;entryDy=0;startArrow=ERmany;startFill=0;endArrow=ERmany;endFill=0;" edge="1" parent="1" source="uHuHp3nA_jXWI_jN8eQP-17" target="uHuHp3nA_jXWI_jN8eQP-58">
          <mxGeometry relative="1" as="geometry" />
        </mxCell>
        <mxCell id="uHuHp3nA_jXWI_jN8eQP-17" value="AÑO" style="ellipse;whiteSpace=wrap;html=1;align=center;rounded=1;" parent="1" vertex="1">
          <mxGeometry x="70" y="400" width="100" height="40" as="geometry" />
        </mxCell>
        <mxCell id="7U72ErHrJSfMNErl-BH8-8" style="edgeStyle=orthogonalEdgeStyle;rounded=1;orthogonalLoop=1;jettySize=auto;html=1;exitX=1;exitY=0.5;exitDx=0;exitDy=0;entryX=0;entryY=0.75;entryDx=0;entryDy=0;startArrow=ERone;startFill=0;endArrow=ERone;endFill=0;" edge="1" parent="1" source="uHuHp3nA_jXWI_jN8eQP-21" target="uHuHp3nA_jXWI_jN8eQP-58">
          <mxGeometry relative="1" as="geometry" />
        </mxCell>
        <mxCell id="uHuHp3nA_jXWI_jN8eQP-21" value="ID MARCA" style="ellipse;whiteSpace=wrap;html=1;align=center;fontStyle=4;rounded=1;" parent="1" vertex="1">
          <mxGeometry x="70" y="450" width="100" height="40" as="geometry" />
        </mxCell>
        <mxCell id="uHuHp3nA_jXWI_jN8eQP-23" value="ID AUTO" style="ellipse;whiteSpace=wrap;html=1;align=center;fontStyle=4;rounded=1;" parent="1" vertex="1">
          <mxGeometry x="220" y="630" width="100" height="40" as="geometry" />
        </mxCell>
        <mxCell id="uHuHp3nA_jXWI_jN8eQP-26" value="NOMBRE" style="ellipse;whiteSpace=wrap;html=1;align=center;rounded=1;" parent="1" vertex="1">
          <mxGeometry x="660" y="320" width="100" height="40" as="geometry" />
        </mxCell>
        <mxCell id="7U72ErHrJSfMNErl-BH8-31" style="edgeStyle=orthogonalEdgeStyle;rounded=1;orthogonalLoop=1;jettySize=auto;html=1;exitX=0;exitY=0.5;exitDx=0;exitDy=0;entryX=1;entryY=0.5;entryDx=0;entryDy=0;startArrow=ERone;startFill=0;endArrow=ERone;endFill=0;" edge="1" parent="1" source="uHuHp3nA_jXWI_jN8eQP-27" target="uHuHp3nA_jXWI_jN8eQP-2">
          <mxGeometry relative="1" as="geometry" />
        </mxCell>
        <mxCell id="uHuHp3nA_jXWI_jN8eQP-27" value="DIRECCIÓN" style="ellipse;whiteSpace=wrap;html=1;align=center;rounded=1;" parent="1" vertex="1">
          <mxGeometry x="660" y="420" width="100" height="40" as="geometry" />
        </mxCell>
        <mxCell id="7U72ErHrJSfMNErl-BH8-32" style="edgeStyle=orthogonalEdgeStyle;rounded=1;orthogonalLoop=1;jettySize=auto;html=1;exitX=0;exitY=0.5;exitDx=0;exitDy=0;entryX=0.897;entryY=0.986;entryDx=0;entryDy=0;entryPerimeter=0;startArrow=ERone;startFill=0;endArrow=ERone;endFill=0;" edge="1" parent="1" source="uHuHp3nA_jXWI_jN8eQP-28" target="uHuHp3nA_jXWI_jN8eQP-2">
          <mxGeometry relative="1" as="geometry" />
        </mxCell>
        <mxCell id="uHuHp3nA_jXWI_jN8eQP-28" value="ID CLIENTE" style="ellipse;whiteSpace=wrap;html=1;align=center;fontStyle=4;rounded=1;" parent="1" vertex="1">
          <mxGeometry x="660" y="470" width="100" height="40" as="geometry" />
        </mxCell>
        <mxCell id="uHuHp3nA_jXWI_jN8eQP-30" value="APELLIDO" style="ellipse;whiteSpace=wrap;html=1;align=center;rounded=1;" parent="1" vertex="1">
          <mxGeometry x="660" y="370" width="100" height="40" as="geometry" />
        </mxCell>
        <mxCell id="uHuHp3nA_jXWI_jN8eQP-32" value="NOMBRE" style="ellipse;whiteSpace=wrap;html=1;align=center;fontSize=9;rounded=1;" parent="1" vertex="1">
          <mxGeometry x="70" y="500" width="100" height="40" as="geometry" />
        </mxCell>
        <mxCell id="7U72ErHrJSfMNErl-BH8-22" style="edgeStyle=orthogonalEdgeStyle;rounded=1;orthogonalLoop=1;jettySize=auto;html=1;exitX=0;exitY=0.5;exitDx=0;exitDy=0;entryX=1;entryY=0.5;entryDx=0;entryDy=0;startArrow=ERone;startFill=0;endArrow=ERone;endFill=0;" edge="1" parent="1" source="uHuHp3nA_jXWI_jN8eQP-38" target="uHuHp3nA_jXWI_jN8eQP-86">
          <mxGeometry relative="1" as="geometry" />
        </mxCell>
        <mxCell id="uHuHp3nA_jXWI_jN8eQP-38" value="SEGURO" style="whiteSpace=wrap;html=1;align=center;rounded=1;" parent="1" vertex="1">
          <mxGeometry x="383" y="320" width="100" height="40" as="geometry" />
        </mxCell>
        <mxCell id="uHuHp3nA_jXWI_jN8eQP-43" value="COMPAÑÍA" style="ellipse;whiteSpace=wrap;html=1;align=center;rounded=1;" parent="1" vertex="1">
          <mxGeometry x="440" y="240" width="100" height="40" as="geometry" />
        </mxCell>
        <mxCell id="uHuHp3nA_jXWI_jN8eQP-44" value="FECHA" style="ellipse;shape=doubleEllipse;margin=3;whiteSpace=wrap;html=1;align=center;rounded=1;" parent="1" vertex="1">
          <mxGeometry x="550" y="240" width="100" height="40" as="geometry" />
        </mxCell>
        <mxCell id="uHuHp3nA_jXWI_jN8eQP-45" value="NÚMERO DE POLIZA" style="ellipse;whiteSpace=wrap;html=1;align=center;fontStyle=4;fontSize=10;rounded=1;" parent="1" vertex="1">
          <mxGeometry x="220" y="240" width="100" height="40" as="geometry" />
        </mxCell>
        <mxCell id="uHuHp3nA_jXWI_jN8eQP-46" value="ID SEGURO" style="ellipse;whiteSpace=wrap;html=1;align=center;fontStyle=4;rounded=1;" parent="1" vertex="1">
          <mxGeometry x="330" y="240" width="100" height="40" as="geometry" />
        </mxCell>
        <mxCell id="uHuHp3nA_jXWI_jN8eQP-47" value="ID AUTO" style="ellipse;whiteSpace=wrap;html=1;align=center;fontStyle=4;rounded=1;" parent="1" vertex="1">
          <mxGeometry x="70" y="300" width="100" height="40" as="geometry" />
        </mxCell>
        <mxCell id="uHuHp3nA_jXWI_jN8eQP-48" value="ID AUTO" style="ellipse;whiteSpace=wrap;html=1;align=center;fontStyle=4;rounded=1;" parent="1" vertex="1">
          <mxGeometry x="660" y="570" width="100" height="40" as="geometry" />
        </mxCell>
        <mxCell id="uHuHp3nA_jXWI_jN8eQP-55" style="rounded=1;orthogonalLoop=1;jettySize=auto;html=1;exitX=0;exitY=0;exitDx=0;exitDy=0;entryX=0.75;entryY=1;entryDx=0;entryDy=0;endArrow=ERone;endFill=0;strokeColor=default;startArrow=none;startFill=0;" parent="1" source="uHuHp3nA_jXWI_jN8eQP-54" target="uHuHp3nA_jXWI_jN8eQP-1" edge="1">
          <mxGeometry relative="1" as="geometry" />
        </mxCell>
        <mxCell id="uHuHp3nA_jXWI_jN8eQP-56" style="rounded=1;orthogonalLoop=1;jettySize=auto;html=1;exitX=1;exitY=0;exitDx=0;exitDy=0;entryX=0.25;entryY=1;entryDx=0;entryDy=0;endArrow=ERmany;endFill=0;startArrow=none;startFill=0;" parent="1" source="uHuHp3nA_jXWI_jN8eQP-54" target="uHuHp3nA_jXWI_jN8eQP-2" edge="1">
          <mxGeometry relative="1" as="geometry" />
        </mxCell>
        <mxCell id="uHuHp3nA_jXWI_jN8eQP-54" value="COMPRA" style="shape=rhombus;perimeter=rhombusPerimeter;whiteSpace=wrap;html=1;align=center;rounded=1;" parent="1" vertex="1">
          <mxGeometry x="430" y="445" width="90" height="50" as="geometry" />
        </mxCell>
        <mxCell id="7U72ErHrJSfMNErl-BH8-10" style="edgeStyle=orthogonalEdgeStyle;rounded=1;orthogonalLoop=1;jettySize=auto;html=1;exitX=0.989;exitY=0.498;exitDx=0;exitDy=0;entryX=0;entryY=0.77;entryDx=0;entryDy=0;entryPerimeter=0;startArrow=ERmany;startFill=0;endArrow=ERmany;endFill=0;exitPerimeter=0;" edge="1" parent="1" source="uHuHp3nA_jXWI_jN8eQP-57" target="uHuHp3nA_jXWI_jN8eQP-1">
          <mxGeometry relative="1" as="geometry" />
        </mxCell>
        <mxCell id="uHuHp3nA_jXWI_jN8eQP-57" value="COLOR" style="ellipse;shape=doubleEllipse;margin=3;whiteSpace=wrap;html=1;align=center;rounded=1;" parent="1" vertex="1">
          <mxGeometry x="220" y="480" width="100" height="40" as="geometry" />
        </mxCell>
        <mxCell id="uHuHp3nA_jXWI_jN8eQP-58" value="MARCA" style="shape=ext;margin=3;double=1;whiteSpace=wrap;html=1;align=center;rounded=1;" parent="1" vertex="1">
          <mxGeometry x="220" y="400" width="100" height="40" as="geometry" />
        </mxCell>
        <mxCell id="uHuHp3nA_jXWI_jN8eQP-61" value="ID CHASIS" style="ellipse;whiteSpace=wrap;html=1;align=center;fontStyle=4;rounded=1;" parent="1" vertex="1">
          <mxGeometry x="220" y="680" width="100" height="40" as="geometry" />
        </mxCell>
        <mxCell id="7U72ErHrJSfMNErl-BH8-20" style="edgeStyle=orthogonalEdgeStyle;rounded=1;orthogonalLoop=1;jettySize=auto;html=1;exitX=0.5;exitY=1;exitDx=0;exitDy=0;entryX=0.5;entryY=0;entryDx=0;entryDy=0;startArrow=ERone;startFill=0;endArrow=ERmany;endFill=0;" edge="1" parent="1" source="uHuHp3nA_jXWI_jN8eQP-65" target="uHuHp3nA_jXWI_jN8eQP-67">
          <mxGeometry relative="1" as="geometry" />
        </mxCell>
        <mxCell id="uHuHp3nA_jXWI_jN8eQP-65" value="ESTADO" style="shape=ext;margin=3;double=1;whiteSpace=wrap;html=1;align=center;rounded=1;" parent="1" vertex="1">
          <mxGeometry x="440" y="520" width="100" height="40" as="geometry" />
        </mxCell>
        <mxCell id="uHuHp3nA_jXWI_jN8eQP-67" value="KILOMETRAJE" style="ellipse;shape=doubleEllipse;margin=3;whiteSpace=wrap;html=1;align=center;rounded=1;" parent="1" vertex="1">
          <mxGeometry x="440" y="590" width="100" height="40" as="geometry" />
        </mxCell>
        <mxCell id="uHuHp3nA_jXWI_jN8eQP-84" value="&lt;h1&gt;DIAGRAMA DE FLUJO&lt;br&gt;ENTIDADES&amp;nbsp;&lt;/h1&gt;&lt;h1&gt;&quot;AUTO&quot;&lt;/h1&gt;" style="text;html=1;align=center;verticalAlign=middle;resizable=0;points=[];autosize=1;strokeColor=none;fillColor=none;rounded=1;" parent="1" vertex="1">
          <mxGeometry x="285" y="30" width="280" height="150" as="geometry" />
        </mxCell>
        <mxCell id="uHuHp3nA_jXWI_jN8eQP-85" value="&lt;h2&gt;&lt;span style=&quot;font-weight: normal;&quot;&gt;&lt;i&gt;&lt;font style=&quot;font-size: 18px;&quot;&gt;Juan José Lizarazu Quiroga&lt;/font&gt;&lt;/i&gt;&lt;/span&gt;&lt;/h2&gt;" style="text;html=1;align=center;verticalAlign=middle;resizable=0;points=[];autosize=1;strokeColor=none;fillColor=none;rounded=1;" parent="1" vertex="1">
          <mxGeometry x="20" y="10" width="250" height="60" as="geometry" />
        </mxCell>
        <mxCell id="uHuHp3nA_jXWI_jN8eQP-86" value="ID AUTO" style="ellipse;whiteSpace=wrap;html=1;align=center;fontStyle=4;rounded=1;" parent="1" vertex="1">
          <mxGeometry x="240" y="320" width="100" height="40" as="geometry" />
        </mxCell>
        <mxCell id="7U72ErHrJSfMNErl-BH8-33" style="edgeStyle=orthogonalEdgeStyle;rounded=1;orthogonalLoop=1;jettySize=auto;html=1;exitX=0;exitY=0.5;exitDx=0;exitDy=0;entryX=0.75;entryY=1;entryDx=0;entryDy=0;startArrow=ERone;startFill=0;endArrow=ERone;endFill=0;" edge="1" parent="1" source="7U72ErHrJSfMNErl-BH8-2" target="uHuHp3nA_jXWI_jN8eQP-2">
          <mxGeometry relative="1" as="geometry" />
        </mxCell>
        <mxCell id="7U72ErHrJSfMNErl-BH8-2" value="TELÉFONO" style="ellipse;whiteSpace=wrap;html=1;align=center;rounded=1;" vertex="1" parent="1">
          <mxGeometry x="660" y="520" width="100" height="40" as="geometry" />
        </mxCell>
        <mxCell id="7U72ErHrJSfMNErl-BH8-5" style="edgeStyle=orthogonalEdgeStyle;rounded=1;orthogonalLoop=1;jettySize=auto;html=1;exitX=1;exitY=0.5;exitDx=0;exitDy=0;entryX=0.067;entryY=-0.007;entryDx=0;entryDy=0;entryPerimeter=0;startArrow=ERone;startFill=0;endArrow=ERone;endFill=0;" edge="1" parent="1" source="uHuHp3nA_jXWI_jN8eQP-47" target="uHuHp3nA_jXWI_jN8eQP-58">
          <mxGeometry relative="1" as="geometry" />
        </mxCell>
        <mxCell id="7U72ErHrJSfMNErl-BH8-9" style="edgeStyle=orthogonalEdgeStyle;rounded=1;orthogonalLoop=1;jettySize=auto;html=1;exitX=1;exitY=0.5;exitDx=0;exitDy=0;entryX=0.069;entryY=1.007;entryDx=0;entryDy=0;entryPerimeter=0;startArrow=ERone;startFill=0;endArrow=ERone;endFill=0;" edge="1" parent="1" source="uHuHp3nA_jXWI_jN8eQP-32" target="uHuHp3nA_jXWI_jN8eQP-58">
          <mxGeometry relative="1" as="geometry">
            <Array as="points">
              <mxPoint x="190" y="520" />
              <mxPoint x="190" y="500" />
              <mxPoint x="210" y="500" />
              <mxPoint x="210" y="460" />
              <mxPoint x="227" y="460" />
            </Array>
          </mxGeometry>
        </mxCell>
        <mxCell id="7U72ErHrJSfMNErl-BH8-12" style="edgeStyle=orthogonalEdgeStyle;rounded=1;orthogonalLoop=1;jettySize=auto;html=1;exitX=1;exitY=0.5;exitDx=0;exitDy=0;entryX=0.205;entryY=1;entryDx=0;entryDy=0;entryPerimeter=0;endArrow=ERone;endFill=0;startArrow=ERmany;startFill=0;" edge="1" parent="1" source="uHuHp3nA_jXWI_jN8eQP-12" target="uHuHp3nA_jXWI_jN8eQP-1">
          <mxGeometry relative="1" as="geometry" />
        </mxCell>
        <mxCell id="7U72ErHrJSfMNErl-BH8-13" style="edgeStyle=orthogonalEdgeStyle;rounded=1;orthogonalLoop=1;jettySize=auto;html=1;exitX=1;exitY=0.5;exitDx=0;exitDy=0;entryX=0.315;entryY=0.997;entryDx=0;entryDy=0;entryPerimeter=0;startArrow=ERone;startFill=0;endArrow=ERone;endFill=0;" edge="1" parent="1" source="uHuHp3nA_jXWI_jN8eQP-23" target="uHuHp3nA_jXWI_jN8eQP-1">
          <mxGeometry relative="1" as="geometry" />
        </mxCell>
        <mxCell id="7U72ErHrJSfMNErl-BH8-14" style="edgeStyle=orthogonalEdgeStyle;rounded=1;orthogonalLoop=1;jettySize=auto;html=1;exitX=1;exitY=0.5;exitDx=0;exitDy=0;entryX=0.434;entryY=0.995;entryDx=0;entryDy=0;entryPerimeter=0;startArrow=ERone;startFill=0;endArrow=ERone;endFill=0;" edge="1" parent="1" source="uHuHp3nA_jXWI_jN8eQP-61" target="uHuHp3nA_jXWI_jN8eQP-1">
          <mxGeometry relative="1" as="geometry" />
        </mxCell>
        <mxCell id="7U72ErHrJSfMNErl-BH8-15" style="edgeStyle=orthogonalEdgeStyle;rounded=1;orthogonalLoop=1;jettySize=auto;html=1;exitX=1;exitY=0.5;exitDx=0;exitDy=0;entryX=0.075;entryY=0.996;entryDx=0;entryDy=0;entryPerimeter=0;endArrow=ERone;endFill=0;startArrow=ERone;startFill=0;" edge="1" parent="1" source="uHuHp3nA_jXWI_jN8eQP-10" target="uHuHp3nA_jXWI_jN8eQP-1">
          <mxGeometry relative="1" as="geometry" />
        </mxCell>
        <mxCell id="7U72ErHrJSfMNErl-BH8-16" style="edgeStyle=orthogonalEdgeStyle;rounded=1;orthogonalLoop=1;jettySize=auto;html=1;exitX=0;exitY=0.5;exitDx=0;exitDy=0;entryX=0.583;entryY=0.987;entryDx=0;entryDy=0;entryPerimeter=0;startArrow=ERone;startFill=0;endArrow=ERone;endFill=0;" edge="1" parent="1" source="uHuHp3nA_jXWI_jN8eQP-65" target="uHuHp3nA_jXWI_jN8eQP-1">
          <mxGeometry relative="1" as="geometry" />
        </mxCell>
        <mxCell id="7U72ErHrJSfMNErl-BH8-23" style="edgeStyle=orthogonalEdgeStyle;rounded=1;orthogonalLoop=1;jettySize=auto;html=1;exitX=0.5;exitY=1;exitDx=0;exitDy=0;entryX=0.1;entryY=-0.012;entryDx=0;entryDy=0;entryPerimeter=0;startArrow=ERone;startFill=0;endArrow=ERone;endFill=0;" edge="1" parent="1" source="uHuHp3nA_jXWI_jN8eQP-45" target="uHuHp3nA_jXWI_jN8eQP-38">
          <mxGeometry relative="1" as="geometry" />
        </mxCell>
        <mxCell id="7U72ErHrJSfMNErl-BH8-24" style="edgeStyle=orthogonalEdgeStyle;rounded=1;orthogonalLoop=1;jettySize=auto;html=1;exitX=0.5;exitY=1;exitDx=0;exitDy=0;entryX=0.316;entryY=-0.003;entryDx=0;entryDy=0;entryPerimeter=0;startArrow=ERone;startFill=0;endArrow=ERone;endFill=0;" edge="1" parent="1" source="uHuHp3nA_jXWI_jN8eQP-46" target="uHuHp3nA_jXWI_jN8eQP-38">
          <mxGeometry relative="1" as="geometry">
            <Array as="points">
              <mxPoint x="380" y="290" />
              <mxPoint x="415" y="290" />
            </Array>
          </mxGeometry>
        </mxCell>
        <mxCell id="7U72ErHrJSfMNErl-BH8-25" style="edgeStyle=orthogonalEdgeStyle;rounded=1;orthogonalLoop=1;jettySize=auto;html=1;exitX=0.5;exitY=1;exitDx=0;exitDy=0;endArrow=ERmany;endFill=0;startArrow=ERone;startFill=0;" edge="1" parent="1" source="uHuHp3nA_jXWI_jN8eQP-43" target="uHuHp3nA_jXWI_jN8eQP-38">
          <mxGeometry relative="1" as="geometry" />
        </mxCell>
        <mxCell id="7U72ErHrJSfMNErl-BH8-26" style="edgeStyle=orthogonalEdgeStyle;rounded=1;orthogonalLoop=1;jettySize=auto;html=1;exitX=0.5;exitY=1;exitDx=0;exitDy=0;entryX=0.884;entryY=0.038;entryDx=0;entryDy=0;entryPerimeter=0;startArrow=ERone;startFill=0;endArrow=ERmany;endFill=0;" edge="1" parent="1" source="uHuHp3nA_jXWI_jN8eQP-44" target="uHuHp3nA_jXWI_jN8eQP-38">
          <mxGeometry relative="1" as="geometry">
            <Array as="points">
              <mxPoint x="600" y="310" />
              <mxPoint x="471" y="310" />
            </Array>
          </mxGeometry>
        </mxCell>
        <mxCell id="7U72ErHrJSfMNErl-BH8-27" style="edgeStyle=orthogonalEdgeStyle;rounded=1;orthogonalLoop=1;jettySize=auto;html=1;exitX=0;exitY=0.5;exitDx=0;exitDy=0;entryX=0.564;entryY=0.046;entryDx=0;entryDy=0;entryPerimeter=0;startArrow=ERone;startFill=0;endArrow=ERone;endFill=0;" edge="1" parent="1" source="uHuHp3nA_jXWI_jN8eQP-26" target="uHuHp3nA_jXWI_jN8eQP-2">
          <mxGeometry relative="1" as="geometry" />
        </mxCell>
        <mxCell id="7U72ErHrJSfMNErl-BH8-34" style="edgeStyle=orthogonalEdgeStyle;rounded=1;orthogonalLoop=1;jettySize=auto;html=1;exitX=0;exitY=0.5;exitDx=0;exitDy=0;entryX=0.611;entryY=1.008;entryDx=0;entryDy=0;entryPerimeter=0;startArrow=ERone;startFill=0;endArrow=ERone;endFill=0;" edge="1" parent="1" source="uHuHp3nA_jXWI_jN8eQP-48" target="uHuHp3nA_jXWI_jN8eQP-2">
          <mxGeometry relative="1" as="geometry" />
        </mxCell>
      </root>
    </mxGraphModel>
  </diagram>
</mxfile>
